<?xml version="1.0" encoding="utf-8"?>
<!-- Generator: Adobe Illustrator 24.0.0, SVG Export Plug-In . SVG Version: 6.00 Build 0)  -->
<svg version="1.1" id="Layer_1" xmlns="http://www.w3.org/2000/svg" xmlns:xlink="http://www.w3.org/1999/xlink" x="0px" y="0px"
	 viewBox="0 0 72.6 55" style="enable-background:new 0 0 72.6 55;" xml:space="preserve">
<style type="text/css">
	.st0{fill:#275A8F;}
	.st1{fill:#161F48;}
	.st2{fill:#E0D9CE;}
	.st3{fill:#EAE5DD;}
	.st4{fill:none;stroke:#ADAFB2;stroke-width:0.5;stroke-miterlimit:10;}
	.st5{fill:#F19938;}
	.st6{fill:#9F7748;}
	.st7{fill:#E43727;}
	.st8{fill:#999897;}
	.st9{fill:#EDE7E1;}
</style>
<path class="st1" d="M28.3,38.3c-1.4-2.9-2.2-6.1-2.2-9.5h0v-0.1h-22C4.1,41.1,14,51,26.2,51l22.4-0.8
	C39.7,50.3,31.8,45.8,28.3,38.3z"/>
<path class="st7" d="M28.3,19.3c-1.4,2.9-2.2,6.1-2.2,9.5h0v0.1h-22C4.1,16.5,14,6.5,26.2,6.5L47,7C38.2,7,31.9,11.7,28.3,19.3z"/>
<path class="st2" d="M47.7,6.5C47.7,6.5,47.7,6.5,47.7,6.5L47.7,6.5H25.8v0c11.2,0,21.1,8.4,21.8,19.4c0,0.7,0.1,2.9,0.1,2.9l22,0
	c0-12.2-9.8-22.1-21.8-22.3v0H47.7z"/>
<path class="st3" d="M47.7,51C47.7,51,47.7,51,47.7,51L47.7,51H25.9v0c11.2,0,21.1-8.4,21.8-19.4c0-0.7,0-2.9,0-2.9l22.1,0
	C69.8,41,60,50.9,48,51v0H47.7z"/>
</svg>
