<?xml version="1.0" encoding="utf-8"?>
<!-- Generator: Adobe Illustrator 24.0.0, SVG Export Plug-In . SVG Version: 6.00 Build 0)  -->
<svg version="1.1" id="Layer_1" xmlns="http://www.w3.org/2000/svg" xmlns:xlink="http://www.w3.org/1999/xlink" x="0px" y="0px"
	 viewBox="0 0 72.3 55" style="enable-background:new 0 0 72.3 55;" xml:space="preserve">
<style type="text/css">
	.st0{fill:#275A8F;}
	.st1{fill:#161F48;}
	.st2{fill:#E0D9CE;}
	.st3{fill:#EAE5DD;}
	.st4{fill:none;stroke:#ADAFB2;stroke-width:0.5;stroke-miterlimit:10;}
	.st5{fill:#F19938;}
	.st6{fill:#9F7748;}
	.st7{fill:#E43727;}
	.st8{fill:#999897;}
	.st9{fill:#EDE7E1;}
</style>
<path class="st1" d="M29.1,37.5c-1.4-2.9-2.2-6.1-2.2-9.5h0v-0.1h-22c0,12.3,9.9,22.3,22.1,22.3l22.4-0.8
	C40.5,49.4,32.6,45,29.1,37.5z"/>
<path class="st6" d="M29.1,18.4c-1.4,2.9-2.2,6.1-2.2,9.5h0V28h-22C4.9,15.7,14.8,5.7,27,5.7l20.8,0.5C39,6.2,32.6,10.9,29.1,18.4z"
	/>
<path class="st2" d="M48.4,5.7C48.4,5.7,48.4,5.7,48.4,5.7L48.4,5.7H26.6v0c11.2,0,21.1,8.4,21.8,19.4c0,0.7,0.1,2.9,0.1,2.9l22,0
	c0-12.2-9.8-22.1-21.8-22.3v0H48.4z"/>
<path class="st3" d="M48.5,50.2C48.5,50.2,48.5,50.2,48.5,50.2L48.5,50.2H26.7v0c11.2,0,21.1-8.4,21.8-19.4c0-0.7,0-2.9,0-2.9
	l22.1,0c0,12.2-9.8,22.1-21.8,22.3v0H48.5z"/>
</svg>
