<?xml version="1.0" encoding="utf-8"?>
<!-- Generator: Adobe Illustrator 24.0.0, SVG Export Plug-In . SVG Version: 6.00 Build 0)  -->
<svg version="1.1" id="Layer_1" xmlns="http://www.w3.org/2000/svg" xmlns:xlink="http://www.w3.org/1999/xlink" x="0px" y="0px"
	 viewBox="0 0 459.6 85.1" style="enable-background:new 0 0 459.6 85.1;" xml:space="preserve">
<style type="text/css">
	.st0{fill:#275A8F;}
	.st1{fill:#161F48;}
	.st2{fill:#E0D9CE;}
	.st3{fill:#EAE5DD;}
	.st4{fill:none;stroke:#ADAFB2;stroke-width:0.5;stroke-miterlimit:10;}
	.st5{fill:#F19938;}
	.st6{fill:#9F7748;}
	.st7{fill:#E43727;}
	.st8{fill:#999897;}
	.st9{fill:#EDE7E1;}
</style>
<g>
	<path class="st7" d="M90.1,46.7V37c0-10,5.7-16.2,18.2-16.2c9.2,0,14.8,4.4,16.7,10.2c0.8,2.2,0.2,3.3-1.9,4l-4.9,1.6
		c-2.2,0.8-3.2,0.2-4.1-1.9c-1-2.4-3-3.9-6.3-3.9c-4.1,0-6.2,2-6.2,5.7v10.8c0,3.7,2.1,5.7,6.2,5.7c3.3,0,5.3-1.5,6.3-3.9
		c0.8-2.1,1.8-2.5,4.1-1.8l5,1.5c2.1,0.7,2.9,1.8,2,4.1c-2.7,6.3-8.2,10.1-17.6,10.1C95.4,62.9,90.1,56.7,90.1,46.7z"/>
	<path class="st7" d="M130.4,46.8v-9.9c0-10,6.3-16.1,18.2-16.1c12.1,0,18.3,6.1,18.3,16.1v9.9c0,10-6.2,16.1-18.3,16.1
		C136.7,62.9,130.4,56.8,130.4,46.8z M155.3,46.9V36.8c0-3.7-2.2-5.7-6.7-5.7c-4.4,0-6.7,2-6.7,5.7v10.1c0,3.7,2.2,5.7,6.7,5.7
		C153.1,52.6,155.3,50.6,155.3,46.9z"/>
	<path class="st7" d="M172.8,46.8v-9.9c0-10,6.3-16.1,18.2-16.1c12.1,0,18.3,6.1,18.3,16.1v9.9c0,10-6.2,16.1-18.3,16.1
		C179.1,62.9,172.8,56.8,172.8,46.8z M197.8,46.9V36.8c0-3.7-2.2-5.7-6.7-5.7c-4.4,0-6.7,2-6.7,5.7v10.1c0,3.7,2.2,5.7,6.7,5.7
		C195.5,52.6,197.8,50.6,197.8,46.9z"/>
	<path class="st7" d="M216.3,75.7V27.6c0-2.5,0.6-3.4,3.1-4.4c3.2-1.2,8-2.4,15.5-2.4c11.4,0,16.7,5.8,16.7,15.8v9.6
		c0,10.8-5.8,16.6-17.7,16.6c-2.1,0-4.1-0.3-6-0.7v13.5c0,2.1-0.7,2.8-2.8,2.8h-6C217.1,78.5,216.3,77.8,216.3,75.7z M240,46.3v-9.6
		c0-3.6-2.4-5.6-6.5-5.6c-2.1,0-3.7,0.2-5.3,0.5c-0.3,0.1-0.4,0.3-0.4,0.5v19.9c1.5,0.2,3.3,0.5,5.1,0.5
		C237.8,52.5,240,50.6,240,46.3z"/>
	<path class="st7" d="M257.5,45.9v-8.1c0-11,6.5-17,18.3-17c12.7,0,18.4,7.3,18.4,16.1v4.7c0,2.3-1,3.8-4,3.8H269v1.9
		c0,4.1,2.6,6,6.9,6c3.6,0,5.9-1.2,7.3-3.1c1.3-1.8,2.2-2.1,4.4-0.9l3.7,1.8c2.1,1.1,2.5,2.4,1.2,4.5c-2.8,4.5-8.1,7.1-16.8,7.1
		C262.6,62.9,257.5,55.5,257.5,45.9z M282.7,37.1v-1.2c0-3.8-2.4-5.9-6.9-5.9c-4.4,0-6.8,2.1-6.8,5.9v1.2H282.7z"/>
	<path class="st7" d="M300.7,58.9V28.8c0-2.5,0.6-3.5,3.1-4.4c2.9-1.1,7.6-2.4,14.8-2.4h2.4c2.1,0,2.8,0.7,2.8,2.8v4.7
		c0,2.1-0.7,2.8-2.8,2.8h-2.8c-2.1,0-3.7,0.2-5.4,0.5c-0.4,0.1-0.5,0.3-0.5,0.5v25.5c0,2.1-0.7,2.8-2.8,2.8h-6
		C301.5,61.7,300.7,61,300.7,58.9z"/>
	<path class="st7" d="M326.7,50.2c0-9.6,5.3-12.5,17.8-12.5c2.1,0,4.3,0.2,5.4,0.2v-1.8c0-3.7-1.6-5.7-5.9-5.7c-3.1,0-5,1-6.3,2.8
		c-1.2,1.8-1.8,2.1-3.9,1.2l-4.2-1.7c-2-0.8-2.6-1.9-1.5-4.1c2.7-5,8.1-8,16.4-8c12.9,0,17.1,6.7,17.1,16.1v19.4
		c0,2.8-0.6,3.5-2.8,4.4c-2.9,1.3-7.9,2.1-14.4,2.1C330.4,62.9,326.7,58.4,326.7,50.2z M349.4,53.6c0.3-0.1,0.5-0.2,0.5-0.5v-6.5
		c-1.5-0.1-4.4-0.2-6.4-0.2c-4.4,0-5.3,1.7-5.3,3.8c0,2.1,0.8,3.8,5.1,3.8C346.6,54,348.5,53.8,349.4,53.6z"/>
	<path class="st7" d="M372.6,44.4V32.2h-4.1c-2.1,0-2.8-0.8-2.8-2.8v-4.6c0-2.1,0.7-2.8,2.8-2.8h4.1v-6.3c0-2.1,0.8-2.8,2.8-2.8h6
		c2.1,0,2.8,0.7,2.8,2.8V22h7.1c2.1,0,2.8,0.7,2.8,2.8v4.6c0,2.1-0.7,2.8-2.8,2.8h-7.1v11.7c0,6,1.9,7.1,7,7.1
		c2.1,0,2.8,0.7,2.8,2.9v4.8c0,2.2-0.7,3-2.8,3C377.8,61.7,372.6,57.8,372.6,44.4z"/>
	<path class="st7" d="M399.8,11.2v-0.8c0-4.1,1.2-5.2,5.4-5.2h1.5c4.1,0,5.4,1.1,5.4,5.2v0.8c0,4.1-1.2,5.2-5.4,5.2h-1.5
		C401,16.4,399.8,15.3,399.8,11.2z M400.1,58.9V24.8c0-2.1,0.8-2.8,2.8-2.8h6c2.1,0,2.8,0.7,2.8,2.8v34.1c0,2.1-0.7,2.8-2.8,2.8h-6
		C400.9,61.7,400.1,61,400.1,58.9z"/>
	<path class="st7" d="M430.2,59.2l-13-33.9c-0.9-2.6-0.4-3.3,2.4-3.3h4.6c3.3,0,4.2,0.5,4.9,2.8l5.2,14.9c1.4,3.9,1.9,9,1.9,9h0.5
		c0,0,0.5-5,1.8-9l5.1-14.8c0.8-2.4,1.5-2.9,4.8-2.9h4.8c2.8,0,3.4,0.7,2.4,3.3l-13.2,33.9c-0.8,2-1.7,2.5-3.8,2.5h-4.5
		C432,61.7,430.9,61.2,430.2,59.2z"/>
</g>
<path class="st1" d="M30.8,50.9c-1.4-2.9-2.2-6.1-2.2-9.5h0v-0.1h-22c0,12.3,9.9,22.3,22.1,22.3L51,62.8
	C42.2,62.8,34.3,58.4,30.8,50.9z"/>
<path class="st7" d="M30.8,31.8c-1.4,2.9-2.2,6.1-2.2,9.5h0v0.1h-22c0-12.3,9.9-22.3,22.1-22.3l20.8,0.5
	C40.7,19.6,34.4,24.3,30.8,31.8z"/>
<path class="st2" d="M50.2,19.1C50.2,19.1,50.2,19.1,50.2,19.1L50.2,19.1H28.3v0c11.2,0,21.1,8.4,21.8,19.4c0,0.7,0.1,2.9,0.1,2.9
	l22,0c0-12.2-9.8-22.1-21.8-22.3v0H50.2z"/>
<path class="st3" d="M50.2,63.6C50.2,63.6,50.2,63.6,50.2,63.6L50.2,63.6H28.4v0c11.2,0,21.1-8.4,21.8-19.4c0-0.7,0-2.9,0-2.9
	l22.1,0c0,12.2-9.8,22.1-21.8,22.3v0H50.2z"/>
</svg>
