<?xml version="1.0" encoding="utf-8"?>
<!-- Generator: Adobe Illustrator 24.0.0, SVG Export Plug-In . SVG Version: 6.00 Build 0)  -->
<svg version="1.1" id="Layer_1" xmlns="http://www.w3.org/2000/svg" xmlns:xlink="http://www.w3.org/1999/xlink" x="0px" y="0px"
	 viewBox="0 0 62 62.5" style="enable-background:new 0 0 62 62.5;" xml:space="preserve">
<style type="text/css">
	.st0{fill:#275A8F;}
	.st1{fill:#161F48;}
	.st2{fill:#E0D9CE;}
	.st3{fill:#EAE5DD;}
	.st4{fill:none;stroke:#ADAFB2;stroke-width:0.5;stroke-miterlimit:10;}
	.st5{fill:#F19938;}
	.st6{fill:#9F7748;}
	.st7{fill:#E43727;}
	.st8{fill:#999897;}
	.st9{fill:#EDE7E1;}
</style>
<path class="st0" d="M30.8,6C16.4,6,4.7,17.5,4.7,31.6c0,14.1,11.7,25.6,26.1,25.6c14.4,0,26.1-11.5,26.1-25.6
	C56.9,17.5,45.2,6,30.8,6z M30.8,52c-11.6,0-21-9.2-21-20.4c0-11.3,9.4-20.4,21-20.4c4.6,0,8.8,1.4,12.2,3.9
	c-1.8,1.8-4.3,4.1-5.4,5.3c-0.5,0.6-1,0.7-1.7,0.3C27,16,16.8,22.3,16.9,32.3c0,5,3.2,9.9,7.9,11.7c4.4,1.7,8.5,1.4,12.2-1l6.2,5.1
	C39.6,50.5,35.4,52,30.8,52z M47.3,44.2c-2.9-2.5-7.8-6.6-8.2-6.9c-1.2-1.1-2.8-1.1-4.2,0.2c-1.3,1.2-2.8,1.9-4.6,1.9
	c-3.4,0.2-6.4-2-7.4-5.2c-1-3.1,0.3-6.5,3-8.4c2.8-1.8,6.3-1.6,8.9,0.7c1.8,1.6,3.1,1.5,4.8-0.2c1.9-1.9,5.1-5,7.6-7.5
	c2.9,3.5,4.6,7.9,4.6,12.7C51.8,36.3,50.1,40.7,47.3,44.2z"/>
</svg>
