<?xml version="1.0" encoding="utf-8"?>
<!-- Generator: Adobe Illustrator 24.0.0, SVG Export Plug-In . SVG Version: 6.00 Build 0)  -->
<svg version="1.1" id="Layer_1" xmlns="http://www.w3.org/2000/svg" xmlns:xlink="http://www.w3.org/1999/xlink" x="0px" y="0px"
	 viewBox="0 0 458.8 82.6" style="enable-background:new 0 0 458.8 82.6;" xml:space="preserve">
<style type="text/css">
	.st0{fill:#275A8F;}
	.st1{fill:#161F48;}
	.st2{fill:#E0D9CE;}
	.st3{fill:#EAE5DD;}
	.st4{fill:none;stroke:#ADAFB2;stroke-width:0.5;stroke-miterlimit:10;}
	.st5{fill:#F19938;}
	.st6{fill:#9F7748;}
	.st7{fill:#E43727;}
	.st8{fill:#999897;}
	.st9{fill:#EDE7E1;}
</style>
<g>
	<path class="st1" d="M88.8,45.8v-9.6c0-10,5.7-16.2,18.2-16.2c9.2,0,14.8,4.4,16.7,10.2c0.8,2.2,0.2,3.3-1.9,4l-4.9,1.6
		c-2.2,0.8-3.2,0.2-4.1-1.9c-1-2.4-3-3.9-6.3-3.9c-4.1,0-6.2,2-6.2,5.7v10.8c0,3.7,2.1,5.7,6.2,5.7c3.3,0,5.3-1.5,6.3-3.9
		c0.8-2.1,1.8-2.5,4.1-1.8l5,1.5c2.1,0.7,2.9,1.8,2,4.1c-2.7,6.3-8.2,10.1-17.6,10.1C94.1,62,88.8,55.9,88.8,45.8z"/>
	<path class="st1" d="M129.1,46v-9.9c0-10,6.3-16.1,18.2-16.1c12.1,0,18.3,6.1,18.3,16.1V46c0,10-6.2,16.1-18.3,16.1
		C135.4,62,129.1,56,129.1,46z M154,46V36c0-3.7-2.2-5.7-6.7-5.7c-4.4,0-6.7,2-6.7,5.7V46c0,3.7,2.2,5.7,6.7,5.7
		C151.8,51.8,154,49.7,154,46z"/>
	<path class="st1" d="M171.6,46v-9.9c0-10,6.3-16.1,18.2-16.1c12.1,0,18.3,6.1,18.3,16.1V46c0,10-6.2,16.1-18.3,16.1
		C177.8,62,171.6,56,171.6,46z M196.5,46V36c0-3.7-2.2-5.7-6.7-5.7c-4.4,0-6.7,2-6.7,5.7V46c0,3.7,2.2,5.7,6.7,5.7
		C194.3,51.8,196.5,49.7,196.5,46z"/>
	<path class="st1" d="M215.1,74.9V26.8c0-2.5,0.6-3.4,3.1-4.4c3.2-1.2,8-2.4,15.5-2.4c11.4,0,16.7,5.8,16.7,15.8v9.6
		c0,10.8-5.8,16.6-17.7,16.6c-2.1,0-4.1-0.3-6-0.7v13.5c0,2.1-0.7,2.8-2.8,2.8h-6C215.8,77.7,215.1,77,215.1,74.9z M238.8,45.4v-9.6
		c0-3.6-2.4-5.6-6.5-5.6c-2.1,0-3.7,0.2-5.3,0.5c-0.3,0.1-0.4,0.3-0.4,0.5v19.9c1.5,0.2,3.3,0.5,5.1,0.5
		C236.5,51.7,238.8,49.7,238.8,45.4z"/>
	<path class="st1" d="M256.2,45.1v-8.1c0-11,6.5-17,18.3-17c12.7,0,18.4,7.3,18.4,16.1v4.7c0,2.3-1,3.8-4,3.8h-21.3v1.9
		c0,4.1,2.6,6,6.9,6c3.6,0,5.9-1.2,7.3-3.1c1.3-1.8,2.2-2.1,4.4-0.9l3.7,1.8c2.1,1.1,2.5,2.4,1.2,4.5c-2.8,4.5-8.1,7.1-16.8,7.1
		C261.3,62,256.2,54.7,256.2,45.1z M281.4,36.3V35c0-3.8-2.4-5.9-6.9-5.9c-4.4,0-6.8,2.1-6.8,5.9v1.2H281.4z"/>
	<path class="st1" d="M299.5,58V27.9c0-2.5,0.6-3.5,3.1-4.4c2.9-1.1,7.6-2.4,14.8-2.4h2.4c2.1,0,2.8,0.7,2.8,2.8v4.7
		c0,2.1-0.7,2.8-2.8,2.8h-2.8c-2.1,0-3.7,0.2-5.4,0.5c-0.4,0.1-0.5,0.3-0.5,0.5V58c0,2.1-0.7,2.8-2.8,2.8h-6
		C300.2,60.9,299.5,60.2,299.5,58z"/>
	<path class="st1" d="M325.4,49.4c0-9.6,5.3-12.5,17.8-12.5c2.1,0,4.3,0.2,5.4,0.2v-1.8c0-3.7-1.6-5.7-5.9-5.7c-3.1,0-5,1-6.3,2.8
		c-1.2,1.8-1.8,2.1-3.9,1.2l-4.2-1.7c-2-0.8-2.6-1.9-1.5-4.1c2.7-5,8.1-8,16.4-8c12.9,0,17.1,6.7,17.1,16.1v19.4
		c0,2.8-0.6,3.5-2.8,4.4c-2.9,1.3-7.9,2.1-14.4,2.1C329.1,62,325.4,57.6,325.4,49.4z M348.2,52.8c0.3-0.1,0.5-0.2,0.5-0.5v-6.5
		c-1.5-0.1-4.4-0.2-6.4-0.2c-4.4,0-5.3,1.7-5.3,3.8c0,2.1,0.8,3.8,5.1,3.8C345.3,53.2,347.2,52.9,348.2,52.8z"/>
	<path class="st1" d="M371.3,43.5V31.4h-4.1c-2.1,0-2.8-0.8-2.8-2.8V24c0-2.1,0.7-2.8,2.8-2.8h4.1v-6.3c0-2.1,0.8-2.8,2.8-2.8h6
		c2.1,0,2.8,0.7,2.8,2.8v6.3h7.1c2.1,0,2.8,0.7,2.8,2.8v4.6c0,2.1-0.7,2.8-2.8,2.8h-7.1v11.7c0,6,1.9,7.1,7,7.1
		c2.1,0,2.8,0.7,2.8,2.9v4.8c0,2.2-0.7,3-2.8,3C376.5,60.9,371.3,57,371.3,43.5z"/>
	<path class="st1" d="M398.5,10.3V9.6c0-4.1,1.2-5.2,5.4-5.2h1.5c4.1,0,5.4,1.1,5.4,5.2v0.8c0,4.1-1.2,5.2-5.4,5.2h-1.5
		C399.8,15.5,398.5,14.5,398.5,10.3z M398.8,58V24c0-2.1,0.8-2.8,2.8-2.8h6c2.1,0,2.8,0.7,2.8,2.8V58c0,2.1-0.7,2.8-2.8,2.8h-6
		C399.6,60.9,398.8,60.2,398.8,58z"/>
	<path class="st1" d="M428.9,58.4l-13-33.9c-0.9-2.6-0.4-3.3,2.4-3.3h4.6c3.3,0,4.2,0.5,4.9,2.8l5.2,14.9c1.4,3.9,1.9,9,1.9,9h0.5
		c0,0,0.5-5,1.8-9l5.1-14.8c0.8-2.4,1.5-2.9,4.8-2.9h4.8c2.8,0,3.4,0.7,2.4,3.3l-13.2,33.9c-0.8,2-1.7,2.5-3.8,2.5h-4.5
		C430.7,60.9,429.6,60.3,428.9,58.4z"/>
</g>
<path class="st0" d="M29.5,50c-1.4-2.9-2.2-6.1-2.2-9.5h0v-0.1h-22c0,12.3,9.9,22.3,22.1,22.3L49.8,62C41,62,33.1,57.6,29.5,50z"/>
<path class="st1" d="M29.5,31c-1.4,2.9-2.2,6.1-2.2,9.5h0v0.1h-22c0-12.3,9.9-22.3,22.1-22.3l20.8,0.5C39.4,18.8,33.1,23.5,29.5,31z
	"/>
<path class="st2" d="M48.9,18.3C48.9,18.3,48.9,18.3,48.9,18.3L48.9,18.3H27v0c11.2,0,21.1,8.4,21.8,19.4c0,0.7,0.1,2.9,0.1,2.9
	l22,0c0-12.2-9.8-22.1-21.8-22.3v0H48.9z"/>
<path class="st3" d="M49,62.8C49,62.8,49,62.8,49,62.8L49,62.8H27.1v0c11.2,0,21.1-8.4,21.8-19.4c0-0.7,0-2.9,0-2.9l22.1,0
	c0,12.2-9.8,22.1-21.8,22.3v0H49z"/>
</svg>
