<?xml version="1.0" encoding="utf-8"?>
<!-- Generator: Adobe Illustrator 24.0.0, SVG Export Plug-In . SVG Version: 6.00 Build 0)  -->
<svg version="1.1" id="Layer_1" xmlns="http://www.w3.org/2000/svg" xmlns:xlink="http://www.w3.org/1999/xlink" x="0px" y="0px"
	 viewBox="0 0 458.8 84.3" style="enable-background:new 0 0 458.8 84.3;" xml:space="preserve">
<style type="text/css">
	.st0{fill:#275A8F;}
	.st1{fill:#161F48;}
	.st2{fill:#E0D9CE;}
	.st3{fill:#EAE5DD;}
	.st4{fill:none;stroke:#ADAFB2;stroke-width:0.5;stroke-miterlimit:10;}
	.st5{fill:#F19938;}
	.st6{fill:#9F7748;}
	.st7{fill:#E43727;}
	.st8{fill:#999897;}
	.st9{fill:#EDE7E1;}
</style>
<g>
	<path class="st3" d="M88.2,47.5v-9.6c0-10,5.7-16.2,18.2-16.2c9.2,0,14.8,4.4,16.7,10.2c0.8,2.2,0.2,3.3-1.9,4l-4.9,1.6
		c-2.2,0.8-3.2,0.2-4.1-1.9c-1-2.4-3-3.9-6.3-3.9c-4.1,0-6.2,2-6.2,5.7V48c0,3.7,2.1,5.7,6.2,5.7c3.3,0,5.3-1.5,6.3-3.9
		c0.8-2.1,1.8-2.5,4.1-1.8l5,1.5c2.1,0.7,2.9,1.8,2,4.1c-2.7,6.3-8.2,10.1-17.6,10.1C93.5,63.7,88.2,57.6,88.2,47.5z"/>
	<path class="st3" d="M128.5,47.6v-9.9c0-10,6.3-16.1,18.2-16.1c12.1,0,18.3,6.1,18.3,16.1v9.9c0,10-6.2,16.1-18.3,16.1
		C134.8,63.7,128.5,57.7,128.5,47.6z M153.4,47.7V37.6c0-3.7-2.2-5.7-6.7-5.7c-4.4,0-6.7,2-6.7,5.7v10.1c0,3.7,2.2,5.7,6.7,5.7
		C151.2,53.5,153.4,51.4,153.4,47.7z"/>
	<path class="st3" d="M170.9,47.6v-9.9c0-10,6.3-16.1,18.2-16.1c12.1,0,18.3,6.1,18.3,16.1v9.9c0,10-6.2,16.1-18.3,16.1
		C177.2,63.7,170.9,57.7,170.9,47.6z M195.9,47.7V37.6c0-3.7-2.2-5.7-6.7-5.7c-4.4,0-6.7,2-6.7,5.7v10.1c0,3.7,2.2,5.7,6.7,5.7
		C193.6,53.5,195.9,51.4,195.9,47.7z"/>
	<path class="st3" d="M214.4,76.5V28.5c0-2.5,0.6-3.4,3.1-4.4c3.2-1.2,8-2.4,15.5-2.4c11.4,0,16.7,5.8,16.7,15.8v9.6
		c0,10.8-5.8,16.6-17.7,16.6c-2.1,0-4.1-0.3-6-0.7v13.5c0,2.1-0.7,2.8-2.8,2.8h-6C215.2,79.4,214.4,78.7,214.4,76.5z M238.1,47.1
		v-9.6c0-3.6-2.4-5.6-6.5-5.6c-2.1,0-3.7,0.2-5.3,0.5c-0.3,0.1-0.4,0.3-0.4,0.5v19.9c1.5,0.2,3.3,0.5,5.1,0.5
		C235.9,53.4,238.1,51.4,238.1,47.1z"/>
	<path class="st3" d="M255.6,46.7v-8.1c0-11,6.5-17,18.3-17c12.7,0,18.4,7.3,18.4,16.1v4.7c0,2.3-1,3.8-4,3.8h-21.3v1.9
		c0,4.1,2.6,6,6.9,6c3.6,0,5.9-1.2,7.3-3.1c1.3-1.8,2.2-2.1,4.4-0.9l3.7,1.8c2.1,1.1,2.5,2.4,1.2,4.5c-2.8,4.5-8.1,7.1-16.8,7.1
		C260.7,63.7,255.6,56.4,255.6,46.7z M280.8,37.9v-1.2c0-3.8-2.4-5.9-6.9-5.9c-4.4,0-6.8,2.1-6.8,5.9v1.2H280.8z"/>
	<path class="st3" d="M298.8,59.7V29.6c0-2.5,0.6-3.5,3.1-4.4c2.9-1.1,7.6-2.4,14.8-2.4h2.4c2.1,0,2.8,0.7,2.8,2.8v4.7
		c0,2.1-0.7,2.8-2.8,2.8h-2.8c-2.1,0-3.7,0.2-5.4,0.5c-0.4,0.1-0.5,0.3-0.5,0.5v25.5c0,2.1-0.7,2.8-2.8,2.8h-6
		C299.6,62.6,298.8,61.9,298.8,59.7z"/>
	<path class="st3" d="M324.8,51.1c0-9.6,5.3-12.5,17.8-12.5c2.1,0,4.3,0.2,5.4,0.2V37c0-3.7-1.6-5.7-5.9-5.7c-3.1,0-5,1-6.3,2.8
		c-1.2,1.8-1.8,2.1-3.9,1.2l-4.2-1.7c-2-0.8-2.6-1.9-1.5-4.1c2.7-5,8.1-8,16.4-8c12.9,0,17.1,6.7,17.1,16.1v19.4
		c0,2.8-0.6,3.5-2.8,4.4c-2.9,1.3-7.9,2.1-14.4,2.1C328.5,63.7,324.8,59.3,324.8,51.1z M347.5,54.4c0.3-0.1,0.5-0.2,0.5-0.5v-6.5
		c-1.5-0.1-4.4-0.2-6.4-0.2c-4.4,0-5.3,1.7-5.3,3.8c0,2.1,0.8,3.8,5.1,3.8C344.7,54.8,346.6,54.6,347.5,54.4z"/>
	<path class="st3" d="M370.7,45.2V33h-4.1c-2.1,0-2.8-0.8-2.8-2.8v-4.6c0-2.1,0.7-2.8,2.8-2.8h4.1v-6.3c0-2.1,0.8-2.8,2.8-2.8h6
		c2.1,0,2.8,0.7,2.8,2.8v6.3h7.1c2.1,0,2.8,0.7,2.8,2.8v4.6c0,2.1-0.7,2.8-2.8,2.8h-7.1v11.7c0,6,1.9,7.1,7,7.1
		c2.1,0,2.8,0.7,2.8,2.9v4.8c0,2.2-0.7,3-2.8,3C375.9,62.6,370.7,58.7,370.7,45.2z"/>
	<path class="st3" d="M397.9,12v-0.8c0-4.1,1.2-5.2,5.4-5.2h1.5c4.1,0,5.4,1.1,5.4,5.2V12c0,4.1-1.2,5.2-5.4,5.2h-1.5
		C399.1,17.2,397.9,16.1,397.9,12z M398.2,59.7V25.6c0-2.1,0.8-2.8,2.8-2.8h6c2.1,0,2.8,0.7,2.8,2.8v34.1c0,2.1-0.7,2.8-2.8,2.8h-6
		C399,62.6,398.2,61.9,398.2,59.7z"/>
	<path class="st3" d="M428.3,60l-13-33.9c-0.9-2.6-0.4-3.3,2.4-3.3h4.6c3.3,0,4.2,0.5,4.9,2.8l5.2,14.9c1.4,3.9,1.9,9,1.9,9h0.5
		c0,0,0.5-5,1.8-9l5.1-14.8c0.8-2.4,1.5-2.9,4.8-2.9h4.8c2.8,0,3.4,0.7,2.4,3.3L440.5,60c-0.8,2-1.7,2.5-3.8,2.5h-4.5
		C430.1,62.6,429,62,428.3,60z"/>
</g>
<path class="st9" d="M28.9,51.7c-1.4-2.9-2.2-6.1-2.2-9.5h0v-0.1h-22c0,12.3,9.9,22.3,22.1,22.3l22.4-0.8
	C40.3,63.7,32.4,59.2,28.9,51.7z"/>
<path class="st9" d="M28.9,32.6c-1.4,2.9-2.2,6.1-2.2,9.5h0v0.1h-22c0-12.3,9.9-22.3,22.1-22.3l20.8,0.5
	C38.8,20.4,32.5,25.1,28.9,32.6z"/>
<path class="st2" d="M48.3,19.9C48.3,19.9,48.3,19.9,48.3,19.9L48.3,19.9H26.4v0c11.2,0,21.1,8.4,21.8,19.4c0,0.7,0.1,2.9,0.1,2.9
	l22,0c0-12.2-9.8-22.1-21.8-22.3v0H48.3z"/>
<path class="st3" d="M48.3,64.4C48.3,64.4,48.3,64.4,48.3,64.4L48.3,64.4H26.5v0c11.2,0,21.1-8.4,21.8-19.4c0-0.7,0-2.9,0-2.9
	l22.1,0c0,12.2-9.8,22.1-21.8,22.3v0H48.3z"/>
</svg>
