<?xml version="1.0" encoding="utf-8"?>
<!-- Generator: Adobe Illustrator 24.0.0, SVG Export Plug-In . SVG Version: 6.00 Build 0)  -->
<svg version="1.1" id="Layer_1" xmlns="http://www.w3.org/2000/svg" xmlns:xlink="http://www.w3.org/1999/xlink" x="0px" y="0px"
	 viewBox="0 0 60.8 60" style="enable-background:new 0 0 60.8 60;" xml:space="preserve">
<style type="text/css">
	.st0{fill:#275A8F;}
	.st1{fill:#161F48;}
	.st2{fill:#E0D9CE;}
	.st3{fill:#EAE5DD;}
	.st4{fill:none;stroke:#ADAFB2;stroke-width:0.5;stroke-miterlimit:10;}
	.st5{fill:#F19938;}
	.st6{fill:#9F7748;}
	.st7{fill:#E43727;}
	.st8{fill:#999897;}
	.st9{fill:#EDE7E1;}
</style>
<path class="st1" d="M30,4.4C15.6,4.4,3.8,15.8,3.8,29.9C3.8,44,15.6,55.5,30,55.5c14.4,0,26.1-11.5,26.1-25.6
	C56.1,15.8,44.4,4.4,30,4.4z M30,50.3c-11.6,0-21-9.2-21-20.4C9,18.7,18.4,9.5,30,9.5c4.6,0,8.8,1.4,12.2,3.9
	c-1.8,1.8-4.3,4.1-5.4,5.3c-0.5,0.6-1,0.7-1.7,0.3C26.2,14.4,16,20.6,16,30.6c0,5,3.2,9.9,7.9,11.7c4.4,1.7,8.5,1.4,12.2-1l6.2,5.1
	C38.8,48.9,34.6,50.3,30,50.3z M46.4,42.5c-2.9-2.5-7.8-6.6-8.2-6.9c-1.2-1.1-2.8-1.1-4.2,0.2c-1.3,1.2-2.8,1.9-4.6,1.9
	c-3.4,0.2-6.4-2-7.4-5.2c-1-3.1,0.3-6.5,3-8.4c2.8-1.8,6.3-1.6,8.9,0.7c1.8,1.6,3.1,1.5,4.8-0.2c1.9-1.9,5.1-5,7.6-7.5
	c2.9,3.5,4.6,7.9,4.6,12.7C51,34.7,49.3,39,46.4,42.5z"/>
</svg>
